<svg xmlns="http://www.w3.org/2000/svg" xmlns:xlink="http://www.w3.org/1999/xlink" width="2000" zoomAndPan="magnify" viewBox="0 0 1500 1499.999933" height="2000" preserveAspectRatio="xMidYMid meet" version="1.0"><defs><clipPath id="3867305812"><path d="M 0 1.746094 L 1498.5 1.746094 L 1498.5 1500 L 0 1500 Z M 0 1.746094 " clip-rule="nonzero"/></clipPath></defs><rect x="-150" width="1800" fill="#ffffff" y="-149.999993" height="1799.99992" fill-opacity="1"/><rect x="-150" width="1800" fill="#ffffff" y="-149.999993" height="1799.99992" fill-opacity="1"/><path stroke-linecap="butt" transform="matrix(6.659999, 0, 0, 6.659999, 0.00003335, 1.744199)" fill-opacity="1" fill="#f8f9f9" fill-rule="nonzero" stroke-linejoin="miter" d="M 152.499774 41.000077 L 153.000079 47.499937 L 152.000055 47.499937 Z M 152.499774 41.000077 " stroke="#f8f9f9" stroke-width="1" stroke-opacity="1" stroke-miterlimit="4"/><path stroke-linecap="butt" transform="matrix(6.659999, 0, 0, 6.659999, 0.00003335, 1.744199)" fill-opacity="1" fill="#f8f9f9" fill-rule="nonzero" stroke-linejoin="miter" d="M 152.499774 56.999867 L 153.000079 72.00022 L 167.999845 72.499939 L 153.499797 73.000244 L 152.000055 71.499915 Z M 152.499774 56.999867 " stroke="#f8f9f9" stroke-width="1" stroke-opacity="1" stroke-miterlimit="4"/><path stroke-linecap="butt" transform="matrix(6.659999, 0, 0, 6.659999, 0.00003335, 1.744199)" fill-opacity="1" fill="#f8f9f9" fill-rule="nonzero" stroke-linejoin="miter" d="M 160.499962 104.999824 L 161.000267 127.500061 L 160.000243 127.500061 Z M 160.499962 104.999824 " stroke="#f8f9f9" stroke-width="1" stroke-opacity="1" stroke-miterlimit="4"/><path stroke-linecap="butt" transform="matrix(6.659999, 0, 0, 6.659999, 0.00003335, 1.744199)" fill-opacity="1" fill="#f8f9f9" fill-rule="nonzero" stroke-linejoin="miter" d="M 120.500193 145.00018 L 120.999912 151.50004 L 119.999888 151.50004 Z M 120.500193 145.00018 " stroke="#f8f9f9" stroke-width="1" stroke-opacity="1" stroke-miterlimit="4"/><path stroke-linecap="butt" transform="matrix(6.659999, 0, 0, 6.659999, 0.00003335, 1.744199)" fill-opacity="1" fill="#f8f9f9" fill-rule="nonzero" stroke-linejoin="miter" d="M 105.49984 151.999758 L 112.999723 152.500063 L 105.49984 152.999782 Z M 105.49984 151.999758 " stroke="#f8f9f9" stroke-width="1" stroke-opacity="1" stroke-miterlimit="4"/><path stroke-linecap="butt" transform="matrix(6.659999, 0, 0, 6.659999, 0.00003335, 1.744199)" fill-opacity="1" fill="#f8f9f9" fill-rule="nonzero" stroke-linejoin="miter" d="M 89.50005 159.999946 L 104.000098 160.500251 L 88.999745 160.99997 L 88.500026 167.000111 L 87.999721 161.500275 Z M 89.50005 159.999946 " stroke="#f8f9f9" stroke-width="1" stroke-opacity="1" stroke-miterlimit="4"/><path stroke-linecap="butt" transform="matrix(6.659999, 0, 0, 6.659999, 0.00003335, 1.744199)" fill-opacity="1" fill="#181714" fill-rule="nonzero" stroke-linejoin="miter" d="M 50.499718 41.000077 L 142.999843 41.499795 L 50.499718 42.0001 Z M 50.499718 41.000077 " stroke="#181714" stroke-width="1" stroke-opacity="1" stroke-miterlimit="4"/><path stroke-linecap="butt" transform="matrix(6.659999, 0, 0, 6.659999, 0.00003335, 1.744199)" fill-opacity="1" fill="#181714" fill-rule="nonzero" stroke-linejoin="miter" d="M 112.500005 73.000244 L 112.999723 95.499894 L 112.000286 95.499894 Z M 112.500005 73.000244 " stroke="#181714" stroke-width="1" stroke-opacity="1" stroke-miterlimit="4"/><path stroke-linecap="butt" transform="matrix(6.659999, 0, 0, 6.659999, 0.00003335, 1.744199)" fill-opacity="1" fill="#181714" fill-rule="nonzero" stroke-linejoin="miter" d="M 144.500172 73.000244 L 144.99989 79.999822 L 167.999845 80.500127 L 145.500195 80.999846 C 143.23328 79.73354 142.900134 77.066615 144.500172 73.000244 Z M 144.500172 73.000244 " stroke="#181714" stroke-width="1" stroke-opacity="1" stroke-miterlimit="4"/><path stroke-linecap="butt" transform="matrix(6.659999, 0, 0, 6.659999, 0.00003335, 1.744199)" fill-opacity="1" fill="#181714" fill-rule="nonzero" stroke-linejoin="miter" d="M 152.499774 105.999848 L 153.000079 126.500037 L 152.000055 126.500037 Z M 152.499774 105.999848 " stroke="#181714" stroke-width="1" stroke-opacity="1" stroke-miterlimit="4"/><path stroke-linecap="butt" transform="matrix(6.659999, 0, 0, 6.659999, 0.00003335, 1.744199)" fill-opacity="1" fill="#181714" fill-rule="nonzero" stroke-linejoin="miter" d="M 145.500195 127.999779 L 151.000031 128.500084 L 144.99989 128.999803 L 144.500172 134.999944 L 143.999867 129.500108 Z M 145.500195 127.999779 " stroke="#181714" stroke-width="1" stroke-opacity="1" stroke-miterlimit="4"/><path stroke-linecap="butt" transform="matrix(6.659999, 0, 0, 6.659999, 0.00003335, 1.744199)" fill-opacity="1" fill="#181714" fill-rule="nonzero" stroke-linejoin="miter" d="M 122.50024 135.999968 L 142.999843 136.500273 L 122.50024 136.999991 Z M 122.50024 135.999968 " stroke="#181714" stroke-width="1" stroke-opacity="1" stroke-miterlimit="4"/><path stroke-linecap="butt" transform="matrix(6.659999, 0, 0, 6.659999, 0.00003335, 1.744199)" fill-opacity="1" fill="#181714" fill-rule="nonzero" stroke-linejoin="miter" d="M 152.499774 146.000203 L 153.000079 159.500228 L 152.000055 159.500228 Z M 152.499774 146.000203 " stroke="#181714" stroke-width="1" stroke-opacity="1" stroke-miterlimit="4"/><path stroke-linecap="butt" transform="matrix(6.659999, 0, 0, 6.659999, 0.00003335, 1.744199)" fill-opacity="1" fill="#181714" fill-rule="nonzero" stroke-linejoin="miter" d="M 74.500283 151.999758 L 103.000074 152.500063 L 74.500283 152.999782 Z M 74.500283 151.999758 " stroke="#181714" stroke-width="1" stroke-opacity="1" stroke-miterlimit="4"/><path stroke-linecap="butt" transform="matrix(6.659999, 0, 0, 6.659999, 0.00003335, 1.744199)" fill-opacity="1" fill="#181714" fill-rule="nonzero" stroke-linejoin="miter" d="M 72.500236 175.999737 L 72.999954 183.500207 L 71.999931 183.500207 Z M 72.500236 175.999737 " stroke="#181714" stroke-width="1" stroke-opacity="1" stroke-miterlimit="4"/><path stroke-linecap="butt" transform="matrix(6.659999, 0, 0, 6.659999, 0.00003335, 1.744199)" fill-opacity="1" fill="#181714" fill-rule="nonzero" stroke-linejoin="miter" d="M 50.499718 182.999901 L 70.999907 183.500207 L 50.499718 183.999925 Z M 50.499718 182.999901 " stroke="#181714" stroke-width="1" stroke-opacity="1" stroke-miterlimit="4"/><path stroke-linecap="butt" transform="matrix(6.659999, 0, 0, 6.659999, 0.00003335, 1.744199)" fill-opacity="1" fill="#181714" fill-rule="nonzero" stroke-linejoin="miter" d="M 122.50024 182.999901 L 175.00001 183.500207 L 122.50024 183.999925 Z M 122.50024 182.999901 " stroke="#181714" stroke-width="1" stroke-opacity="1" stroke-miterlimit="4"/><path stroke-linecap="butt" transform="matrix(6.659999, 0, 0, 6.659999, 0.00003335, 1.744199)" fill-opacity="1" fill="#000000" fill-rule="nonzero" stroke-linejoin="miter" d="M 49.500281 41.000077 L 50.499718 42.0001 L 142.500125 42.0001 L 143.999867 41.499795 L 143.999867 48.49996 L 143.500148 49.000265 L 57.000164 49.000265 L 57.000164 175.999737 L 71.999931 175.999737 L 71.999931 183.500207 L 70.500189 182.999901 L 50.499718 182.999901 L 49.500281 183.999925 Z M 49.500281 41.000077 " stroke="#000000" stroke-width="1" stroke-opacity="1" stroke-miterlimit="4"/><path stroke-linecap="butt" transform="matrix(6.659999, 0, 0, 6.659999, 0.00003335, 1.744199)" fill-opacity="1" fill="#000000" fill-rule="nonzero" stroke-linejoin="miter" d="M 112.999723 73.000244 L 119.50017 73.000244 L 119.999888 73.499962 L 119.999888 96.000199 L 113.500028 96.000199 L 112.999723 95.499894 Z M 112.999723 73.000244 " stroke="#000000" stroke-width="1" stroke-opacity="1" stroke-miterlimit="4"/><path stroke-linecap="butt" transform="matrix(6.659999, 0, 0, 6.659999, 0.00003335, 1.744199)" fill-opacity="1" fill="#000000" fill-rule="nonzero" stroke-linejoin="miter" d="M 144.99989 73.000244 L 176.000034 73.000244 L 176.000034 103.999801 L 167.999845 103.999801 L 167.999845 79.999822 L 145.500195 79.999822 L 144.99989 79.500104 Z M 144.99989 73.000244 " stroke="#000000" stroke-width="1" stroke-opacity="1" stroke-miterlimit="4"/><path stroke-linecap="butt" transform="matrix(6.659999, 0, 0, 6.659999, 0.00003335, 1.744199)" fill-opacity="1" fill="#000000" fill-rule="nonzero" stroke-linejoin="miter" d="M 88.999745 97.000223 L 111.499981 97.000223 L 112.000286 97.499941 L 112.000286 103.999801 L 89.50005 103.999801 L 88.999745 103.500082 Z M 88.999745 97.000223 " stroke="#000000" stroke-width="1" stroke-opacity="1" stroke-miterlimit="4"/><path stroke-linecap="butt" transform="matrix(6.659999, 0, 0, 6.659999, 0.00003335, 1.744199)" fill-opacity="1" fill="#000000" fill-rule="nonzero" stroke-linejoin="miter" d="M 152.499774 104.999824 L 160.000243 104.999824 L 160.000243 127.999779 L 152.000055 127.500061 L 153.000079 126.500037 L 153.000079 106.500153 Z M 152.499774 104.999824 " stroke="#000000" stroke-width="1" stroke-opacity="1" stroke-miterlimit="4"/><path stroke-linecap="butt" transform="matrix(6.659999, 0, 0, 6.659999, 0.00003335, 1.744199)" fill-opacity="1" fill="#000000" fill-rule="nonzero" stroke-linejoin="miter" d="M 144.99989 128.999803 L 152.000055 128.999803 L 152.000055 135.999968 L 143.999867 135.999968 L 143.999867 143.499851 L 143.500148 144.000156 L 120.999912 144.000156 L 121.500217 135.999968 L 122.50024 136.999991 L 142.500125 136.999991 C 145.166463 135.866827 145.999914 133.199902 144.99989 128.999803 Z M 144.99989 128.999803 " stroke="#000000" stroke-width="1" stroke-opacity="1" stroke-miterlimit="4"/><path stroke-linecap="butt" transform="matrix(6.659999, 0, 0, 6.659999, 0.00003335, 1.744199)" fill-opacity="1" fill="#000000" fill-rule="nonzero" stroke-linejoin="miter" d="M 167.999845 136.999991 L 175.499729 136.999991 L 176.000034 137.49971 L 176.000034 183.500207 L 174.500292 182.999901 L 122.50024 182.999901 L 121.500217 183.999925 L 120.999912 175.999737 L 167.999845 175.999737 Z M 167.999845 136.999991 " stroke="#000000" stroke-width="1" stroke-opacity="1" stroke-miterlimit="4"/><path stroke-linecap="butt" transform="matrix(6.659999, 0, 0, 6.659999, 0.00003335, 1.744199)" fill-opacity="1" fill="#000000" fill-rule="nonzero" stroke-linejoin="miter" d="M 152.499774 145.00018 L 160.000243 145.00018 L 160.000243 168.000135 L 129.499818 168.000135 L 129.0001 167.49983 L 129.0001 160.99997 L 151.49975 160.99997 L 153.000079 159.500228 L 153.000079 146.499922 Z M 152.499774 145.00018 " stroke="#000000" stroke-width="1" stroke-opacity="1" stroke-miterlimit="4"/><path stroke-linecap="butt" transform="matrix(6.659999, 0, 0, 6.659999, 0.00003335, 1.744199)" fill-opacity="1" fill="#000000" fill-rule="nonzero" stroke-linejoin="miter" d="M 73.500259 151.999758 L 74.500283 152.999782 L 102.499769 152.999782 L 104.000098 152.500063 L 104.000098 159.500228 L 103.499793 159.999946 L 72.999954 159.999946 Z M 73.500259 151.999758 " stroke="#000000" stroke-width="1" stroke-opacity="1" stroke-miterlimit="4"/><path stroke-linecap="butt" transform="matrix(6.659999, 0, 0, 6.659999, 0.00003335, 1.744199)" fill-opacity="1" fill="#fefefe" fill-rule="nonzero" stroke-linejoin="miter" d="M 58.499906 49.000265 L 142.999843 49.499984 L 58.499906 50.000289 Z M 58.499906 49.000265 " stroke="#fefefe" stroke-width="1" stroke-opacity="1" stroke-miterlimit="4"/><path stroke-linecap="butt" transform="matrix(6.659999, 0, 0, 6.659999, 0.00003335, 1.744199)" fill-opacity="1" fill="#fefefe" fill-rule="nonzero" stroke-linejoin="miter" d="M 160.499962 49.000265 L 161.000267 56.500149 L 160.000243 56.500149 Z M 160.499962 49.000265 " stroke="#fefefe" stroke-width="1" stroke-opacity="1" stroke-miterlimit="4"/><path stroke-linecap="butt" transform="matrix(6.659999, 0, 0, 6.659999, 0.00003335, 1.744199)" fill-opacity="1" fill="#fefefe" fill-rule="nonzero" stroke-linejoin="miter" d="M 64.500047 56.999867 L 64.999766 167.49983 L 63.999742 167.49983 Z M 64.500047 56.999867 " stroke="#fefefe" stroke-width="1" stroke-opacity="1" stroke-miterlimit="4"/><path stroke-linecap="butt" transform="matrix(6.659999, 0, 0, 6.659999, 0.00003335, 1.744199)" fill-opacity="1" fill="#fefefe" fill-rule="nonzero" stroke-linejoin="miter" d="M 168.50015 64.000032 L 176.000034 64.499751 L 168.50015 65.000056 Z M 168.50015 64.000032 " stroke="#fefefe" stroke-width="1" stroke-opacity="1" stroke-miterlimit="4"/><path stroke-linecap="butt" transform="matrix(6.659999, 0, 0, 6.659999, 0.00003335, 1.744199)" fill-opacity="1" fill="#fefefe" fill-rule="nonzero" stroke-linejoin="miter" d="M 160.499962 81.999869 L 161.000267 104.500106 L 160.000243 104.500106 Z M 160.499962 81.999869 " stroke="#fefefe" stroke-width="1" stroke-opacity="1" stroke-miterlimit="4"/><path stroke-linecap="butt" transform="matrix(6.659999, 0, 0, 6.659999, 0.00003335, 1.744199)" fill-opacity="1" fill="#fefefe" fill-rule="nonzero" stroke-linejoin="miter" d="M 113.500028 151.999758 L 120.999912 152.500063 L 113.500028 152.999782 Z M 113.500028 151.999758 " stroke="#fefefe" stroke-width="1" stroke-opacity="1" stroke-miterlimit="4"/><path stroke-linecap="butt" transform="matrix(6.659999, 0, 0, 6.659999, 0.00003335, 1.744199)" fill-opacity="1" fill="#fefefe" fill-rule="nonzero" stroke-linejoin="miter" d="M 58.499906 174.999713 L 72.999954 175.500018 L 58.499906 175.999737 Z M 58.499906 174.999713 " stroke="#fefefe" stroke-width="1" stroke-opacity="1" stroke-miterlimit="4"/><path stroke-linecap="butt" transform="matrix(6.659999, 0, 0, 6.659999, 0.00003335, 1.744199)" fill-opacity="1" fill="#fefefe" fill-rule="nonzero" stroke-linejoin="miter" d="M 120.500193 174.999713 L 166.999822 175.500018 L 120.500193 175.999737 Z M 120.500193 174.999713 " stroke="#fefefe" stroke-width="1" stroke-opacity="1" stroke-miterlimit="4"/><g clip-path="url(#3867305812)"><path stroke-linecap="butt" transform="matrix(6.659999, 0, 0, 6.659999, 0.00003335, 1.744199)" fill-opacity="1" fill="#ffffff" fill-rule="nonzero" stroke-linejoin="miter" d="M -0.00000500751 0.000284558 L 225.000014 0.000284558 L 225.000014 224.999717 L -0.00000500751 224.999717 Z M 48.999976 41.000077 L 48.999976 183.999925 L 72.999954 183.999925 L 72.999954 174.999713 L 59.000211 174.999713 L 57.000164 175.999737 L 58.000188 49.000265 L 59.000211 50.000289 L 143.999867 50.000289 L 143.999867 56.999867 L 63.999742 56.999867 L 63.999742 168.000135 L 88.999745 168.000135 L 88.999745 160.99997 L 105.000121 160.99997 L 105.000121 152.999782 L 120.999912 152.999782 L 120.999912 145.00018 L 144.99989 145.00018 L 144.99989 136.999991 L 153.000079 136.999991 L 153.000079 128.999803 L 161.000267 128.999803 L 161.000267 80.999846 L 167.999845 80.999846 L 167.999845 104.999824 L 176.000034 104.999824 L 176.000034 64.000032 L 167.999845 64.000032 L 167.999845 58.999914 L 168.999869 56.999867 L 161.000267 56.999867 L 161.000267 49.000265 L 153.000079 49.000265 L 153.000079 41.000077 Z M 167.999845 135.999968 L 167.999845 175.999737 L 166.999822 174.999713 L 119.999888 174.999713 L 119.999888 183.999925 L 176.000034 183.999925 L 176.000034 135.999968 Z M 152.000055 144.000156 L 152.000055 159.999946 L 128.000076 159.999946 L 128.000076 169.000158 L 160.000243 169.000158 L 160.000243 144.000156 Z M 152.000055 144.000156 " stroke="#ffffff" stroke-width="1" stroke-opacity="1" stroke-miterlimit="4"/></g><path stroke-linecap="butt" transform="matrix(6.659999, 0, 0, 6.659999, 0.00003335, 1.744199)" fill-opacity="1" fill="#ffffff" fill-rule="nonzero" stroke-linejoin="miter" d="M 153.000079 56.999867 L 160.000243 56.999867 L 160.000243 65.000056 L 167.999845 65.000056 L 167.999845 72.00022 L 153.000079 72.00022 Z M 153.000079 56.999867 " stroke="#ffffff" stroke-width="1" stroke-opacity="1" stroke-miterlimit="4"/><path stroke-linecap="butt" transform="matrix(6.659999, 0, 0, 6.659999, 0.00003335, 1.744199)" fill-opacity="1" fill="#1b9515" fill-rule="nonzero" stroke-linejoin="miter" d="M 88.999745 65.000056 L 112.000286 65.000056 L 112.000286 95.499894 L 112.500005 96.000199 L 119.50017 96.000199 L 119.50017 97.000223 L 81.000143 97.000223 L 81.000143 73.000244 L 88.999745 73.000244 Z M 88.999745 65.000056 " stroke="#1b9515" stroke-width="1" stroke-opacity="1" stroke-miterlimit="4"/><path stroke-linecap="butt" transform="matrix(6.659999, 0, 0, 6.659999, 0.00003335, 1.744199)" fill-opacity="1" fill="#1b9515" fill-rule="nonzero" stroke-linejoin="miter" d="M 89.50005 103.999801 L 112.000286 104.500106 L 89.50005 104.999824 Z M 89.50005 103.999801 " stroke="#1b9515" stroke-width="1" stroke-opacity="1" stroke-miterlimit="4"/><path stroke-linecap="butt" transform="matrix(6.659999, 0, 0, 6.659999, 0.00003335, 1.744199)" fill-opacity="1" fill="#1b9515" fill-rule="nonzero" stroke-linejoin="miter" d="M 168.50015 135.999968 L 175.00001 136.500273 L 168.50015 136.999991 Z M 168.50015 135.999968 " stroke="#1b9515" stroke-width="1" stroke-opacity="1" stroke-miterlimit="4"/><path stroke-linecap="butt" transform="matrix(6.659999, 0, 0, 6.659999, 0.00003335, 1.744199)" fill-opacity="1" fill="#1b9515" fill-rule="nonzero" stroke-linejoin="miter" d="M 120.500193 136.999991 L 120.999912 143.499851 L 119.999888 143.499851 Z M 120.500193 136.999991 " stroke="#1b9515" stroke-width="1" stroke-opacity="1" stroke-miterlimit="4"/><path stroke-linecap="butt" transform="matrix(6.659999, 0, 0, 6.659999, 0.00003335, 1.744199)" fill-opacity="1" fill="#1b9515" fill-rule="nonzero" stroke-linejoin="miter" d="M 129.499818 159.999946 L 152.000055 160.500251 L 129.499818 160.99997 Z M 129.499818 159.999946 " stroke="#1b9515" stroke-width="1" stroke-opacity="1" stroke-miterlimit="4"/><path stroke-linecap="butt" transform="matrix(6.659999, 0, 0, 6.659999, 0.00003335, 1.744199)" fill-opacity="1" fill="#cfcfd0" fill-rule="nonzero" stroke-linejoin="miter" d="M 143.999867 41.000077 L 152.000055 41.000077 L 152.000055 49.000265 L 160.000243 49.000265 L 160.000243 56.999867 L 167.999845 56.999867 L 167.999845 65.000056 L 176.000034 65.000056 L 176.000034 73.000244 L 167.999845 73.000244 L 167.999845 65.000056 L 160.000243 65.000056 L 160.000243 56.999867 L 152.000055 56.999867 L 152.000055 71.499915 L 153.000079 72.499939 L 143.999867 73.000244 L 143.999867 80.999846 L 160.000243 80.999846 L 160.000243 104.999824 L 120.999912 104.999824 L 120.999912 136.500273 L 119.999888 137.49971 L 119.999888 144.000156 L 143.999867 144.000156 L 143.999867 135.999968 L 152.000055 135.999968 L 152.000055 130.500132 L 153.000079 130.500132 C 153.866961 134.033353 153.366656 136.199973 151.49975 136.999991 C 145.033322 134.866803 142.866702 137.033423 144.99989 143.499851 L 143.500148 145.00018 L 119.999888 145.00018 L 119.999888 151.999758 L 112.000286 151.999758 L 112.000286 145.00018 L 105.49984 145.00018 L 104.000098 143.499851 L 104.000098 136.999991 C 99.93314 138.20002 97.266801 137.699715 95.999909 135.500249 C 98.199961 129.033235 96.033341 126.866615 89.50005 128.999803 L 87.999721 127.500061 L 87.999721 121.000201 C 83.93335 122.200229 81.266425 121.699924 80.000119 119.499873 L 80.000119 113.000013 L 72.999954 113.000013 L 72.999954 159.999946 L 88.500026 159.999946 L 87.999721 161.500275 C 87.200289 164.699764 87.533434 166.699811 88.999745 167.49983 L 64.999766 168.000135 L 64.999766 56.999867 L 143.500148 56.999867 L 143.999867 56.500149 Z M 88.999745 65.000056 L 88.999745 73.000244 L 81.000143 73.000244 L 81.000143 97.000223 L 88.999745 97.000223 L 88.999745 104.999824 L 112.000286 104.999824 L 112.000286 98.000246 L 113.999747 98.000246 L 119.999888 97.000223 L 119.999888 73.000244 L 112.000286 73.000244 L 112.000286 65.000056 Z M 88.999745 65.000056 " stroke="#cfcfd0" stroke-width="1" stroke-opacity="1" stroke-miterlimit="4"/><path stroke-linecap="butt" transform="matrix(6.659999, 0, 0, 6.659999, 0.00003335, 1.744199)" fill-opacity="1" fill="#cfcfd0" fill-rule="nonzero" stroke-linejoin="miter" d="M 168.50015 103.999801 L 176.000034 104.500106 L 168.50015 104.999824 Z M 168.50015 103.999801 " stroke="#cfcfd0" stroke-width="1" stroke-opacity="1" stroke-miterlimit="4"/><path stroke-linecap="butt" transform="matrix(6.659999, 0, 0, 6.659999, 0.00003335, 1.744199)" fill-opacity="1" fill="#cfcfd0" fill-rule="nonzero" stroke-linejoin="miter" d="M 152.499774 127.999779 L 160.000243 128.500084 L 152.499774 128.999803 Z M 152.499774 127.999779 " stroke="#cfcfd0" stroke-width="1" stroke-opacity="1" stroke-miterlimit="4"/><path stroke-linecap="butt" transform="matrix(6.659999, 0, 0, 6.659999, 0.00003335, 1.744199)" fill-opacity="1" fill="#cfcfd0" fill-rule="nonzero" stroke-linejoin="miter" d="M 152.499774 144.000156 L 160.000243 144.499875 L 152.499774 145.00018 Z M 152.499774 144.000156 " stroke="#cfcfd0" stroke-width="1" stroke-opacity="1" stroke-miterlimit="4"/><path stroke-linecap="butt" transform="matrix(6.659999, 0, 0, 6.659999, 0.00003335, 1.744199)" fill-opacity="1" fill="#cfcfd0" fill-rule="nonzero" stroke-linejoin="miter" d="M 104.499816 151.999758 L 105.000121 159.500228 L 104.000098 159.500228 Z M 104.499816 151.999758 " stroke="#cfcfd0" stroke-width="1" stroke-opacity="1" stroke-miterlimit="4"/><path stroke-linecap="butt" transform="matrix(6.659999, 0, 0, 6.659999, 0.00003335, 1.744199)" fill-opacity="1" fill="#cfcfd0" fill-rule="nonzero" stroke-linejoin="miter" d="M 128.499795 159.999946 L 129.0001 168.000135 L 160.000243 168.499853 L 129.499818 169.000158 L 128.000076 167.49983 Z M 128.499795 159.999946 " stroke="#cfcfd0" stroke-width="1" stroke-opacity="1" stroke-miterlimit="4"/><path stroke-linecap="butt" transform="matrix(6.659999, 0, 0, 6.659999, 0.00003335, 1.744199)" fill-opacity="1" fill="#cfcfd0" fill-rule="nonzero" stroke-linejoin="miter" d="M 120.500193 175.999737 L 120.999912 183.500207 L 119.999888 183.500207 Z M 120.500193 175.999737 " stroke="#cfcfd0" stroke-width="1" stroke-opacity="1" stroke-miterlimit="4"/><path stroke-linecap="butt" transform="matrix(6.659999, 0, 0, 6.659999, 0.00003335, 1.744199)" fill-opacity="1" fill="#0d48e1" fill-rule="nonzero" stroke-linejoin="miter" d="M 72.999954 113.000013 L 80.000119 113.000013 L 80.000119 119.499873 L 81.499861 121.000201 L 87.999721 121.000201 C 86.866557 125.066573 87.366862 127.733498 89.50005 128.999803 C 96.033341 126.866615 98.199961 129.033235 95.999909 135.500249 L 97.500238 136.999991 L 104.000098 136.999991 L 104.000098 143.499851 L 105.49984 145.00018 L 112.000286 145.00018 L 112.000286 151.999758 L 72.999954 151.999758 Z M 72.999954 113.000013 " stroke="#0d48e1" stroke-width="1" stroke-opacity="1" stroke-miterlimit="4"/><path stroke-linecap="butt" transform="matrix(6.659999, 0, 0, 6.659999, 0.00003335, 1.744199)" fill-opacity="1" fill="#ca0202" fill-rule="nonzero" stroke-linejoin="miter" d="M 120.999912 104.999824 L 152.000055 104.999824 L 152.000055 128.500084 L 150.499726 127.999779 C 147.033369 127.199761 144.866749 127.700066 143.999867 129.500108 C 144.533604 133.700207 144.366444 135.866827 143.500148 135.999968 L 120.999912 135.999968 Z M 120.999912 104.999824 " stroke="#ca0202" stroke-width="1" stroke-opacity="1" stroke-miterlimit="4"/></svg>